<?xml version="1.0" encoding="UTF-8" standalone="no"?>
<!DOCTYPE svg PUBLIC "-//W3C//DTD SVG 1.1//EN"
 "http://www.w3.org/Graphics/SVG/1.1/DTD/svg11.dtd">
<!-- Generated by graphviz version 2.43.0 (0)
 -->
<!-- Title: classes Pages: 1 -->
<svg width="3073pt" height="1752pt"
 viewBox="0.00 0.00 3072.50 1752.00" xmlns="http://www.w3.org/2000/svg" xmlns:xlink="http://www.w3.org/1999/xlink">
<g id="graph0" class="graph" transform="scale(1 1) rotate(0) translate(4 1748)">
<title>classes</title>
<polygon fill="white" stroke="transparent" points="-4,4 -4,-1748 3068.5,-1748 3068.5,4 -4,4"/>
<!-- four_in_a_row.src.alert.Alert -->
<g id="node1" class="node">
<title>four_in_a_row.src.alert.Alert</title>
<polygon fill="none" stroke="black" points="410,-948 410,-1122 592,-1122 592,-948 410,-948"/>
<text text-anchor="middle" x="501" y="-1106.8" font-family="Times,serif" font-size="14.00">Alert</text>
<polyline fill="none" stroke="black" points="410,-1099 592,-1099 "/>
<text text-anchor="start" x="418" y="-1083.8" font-family="Times,serif" font-size="14.00">alert</text>
<text text-anchor="start" x="418" y="-1068.8" font-family="Times,serif" font-size="14.00">height : int</text>
<text text-anchor="start" x="418" y="-1053.8" font-family="Times,serif" font-size="14.00">length : int</text>
<text text-anchor="start" x="418" y="-1038.8" font-family="Times,serif" font-size="14.00">message : str</text>
<text text-anchor="start" x="418" y="-1023.8" font-family="Times,serif" font-size="14.00">side : int</text>
<text text-anchor="start" x="418" y="-1008.8" font-family="Times,serif" font-size="14.00">surface</text>
<polyline fill="none" stroke="black" points="410,-1001 592,-1001 "/>
<text text-anchor="start" x="418" y="-985.8" font-family="Times,serif" font-size="14.00">blit_in(screen: Surface)</text>
<text text-anchor="start" x="418" y="-970.8" font-family="Times,serif" font-size="14.00">click()</text>
<text text-anchor="start" x="418" y="-955.8" font-family="Times,serif" font-size="14.00">update()</text>
</g>
<!-- four_in_a_row.src.game.Game -->
<g id="node6" class="node">
<title>four_in_a_row.src.game.Game</title>
<polygon fill="none" stroke="black" points="546.5,-1284.5 546.5,-1743.5 827.5,-1743.5 827.5,-1284.5 546.5,-1284.5"/>
<text text-anchor="middle" x="687" y="-1728.3" font-family="Times,serif" font-size="14.00">Game</text>
<polyline fill="none" stroke="black" points="546.5,-1720.5 827.5,-1720.5 "/>
<text text-anchor="start" x="554.5" y="-1705.3" font-family="Times,serif" font-size="14.00">alert : NoneType</text>
<text text-anchor="start" x="554.5" y="-1690.3" font-family="Times,serif" font-size="14.00">current_player</text>
<text text-anchor="start" x="554.5" y="-1675.3" font-family="Times,serif" font-size="14.00">end : bool</text>
<text text-anchor="start" x="554.5" y="-1660.3" font-family="Times,serif" font-size="14.00">game_count_won : dict</text>
<text text-anchor="start" x="554.5" y="-1645.3" font-family="Times,serif" font-size="14.00">grill : ndarray</text>
<text text-anchor="start" x="554.5" y="-1630.3" font-family="Times,serif" font-size="14.00">grill_box</text>
<text text-anchor="start" x="554.5" y="-1615.3" font-family="Times,serif" font-size="14.00">grill_token</text>
<text text-anchor="start" x="554.5" y="-1600.3" font-family="Times,serif" font-size="14.00">menu</text>
<text text-anchor="start" x="554.5" y="-1585.3" font-family="Times,serif" font-size="14.00">n_rows : int</text>
<text text-anchor="start" x="554.5" y="-1570.3" font-family="Times,serif" font-size="14.00">n_set : int</text>
<text text-anchor="start" x="554.5" y="-1555.3" font-family="Times,serif" font-size="14.00">nb_colonnes : int</text>
<text text-anchor="start" x="554.5" y="-1540.3" font-family="Times,serif" font-size="14.00">nb_lignes : int</text>
<text text-anchor="start" x="554.5" y="-1525.3" font-family="Times,serif" font-size="14.00">nb_token_column : ndarray</text>
<text text-anchor="start" x="554.5" y="-1510.3" font-family="Times,serif" font-size="14.00">player1</text>
<text text-anchor="start" x="554.5" y="-1495.3" font-family="Times,serif" font-size="14.00">player2</text>
<text text-anchor="start" x="554.5" y="-1480.3" font-family="Times,serif" font-size="14.00">screen</text>
<polyline fill="none" stroke="black" points="546.5,-1472.5 827.5,-1472.5 "/>
<text text-anchor="start" x="554.5" y="-1457.3" font-family="Times,serif" font-size="14.00">add_token(token: Token, column: int)</text>
<text text-anchor="start" x="554.5" y="-1442.3" font-family="Times,serif" font-size="14.00">check_columns()</text>
<text text-anchor="start" x="554.5" y="-1427.3" font-family="Times,serif" font-size="14.00">check_diagonales_left()</text>
<text text-anchor="start" x="554.5" y="-1412.3" font-family="Times,serif" font-size="14.00">check_diagonales_right()</text>
<text text-anchor="start" x="554.5" y="-1397.3" font-family="Times,serif" font-size="14.00">check_full()</text>
<text text-anchor="start" x="554.5" y="-1382.3" font-family="Times,serif" font-size="14.00">check_grill()</text>
<text text-anchor="start" x="554.5" y="-1367.3" font-family="Times,serif" font-size="14.00">check_rows()</text>
<text text-anchor="start" x="554.5" y="-1352.3" font-family="Times,serif" font-size="14.00">click(x: int)</text>
<text text-anchor="start" x="554.5" y="-1337.3" font-family="Times,serif" font-size="14.00">get_next_row(column: int)</text>
<text text-anchor="start" x="554.5" y="-1322.3" font-family="Times,serif" font-size="14.00">restart()</text>
<text text-anchor="start" x="554.5" y="-1307.3" font-family="Times,serif" font-size="14.00">swipe_player()</text>
<text text-anchor="start" x="554.5" y="-1292.3" font-family="Times,serif" font-size="14.00">update()</text>
</g>
<!-- four_in_a_row.src.alert.Alert&#45;&gt;four_in_a_row.src.game.Game -->
<g id="edge1" class="edge">
<title>four_in_a_row.src.alert.Alert&#45;&gt;four_in_a_row.src.game.Game</title>
<path fill="none" stroke="black" d="M525.08,-1122.1C537.99,-1165.68 554.94,-1219.15 573,-1266 573.91,-1268.37 574.84,-1270.74 575.77,-1273.13"/>
<polygon fill="black" stroke="black" points="575.8,-1273.19 581.73,-1277.29 580.23,-1284.34 574.29,-1280.24 575.8,-1273.19"/>
<text text-anchor="middle" x="578" y="-1186.8" font-family="Times,serif" font-size="14.00" fill="green">alert</text>
</g>
<!-- four_in_a_row.src.button.Button -->
<g id="node2" class="node">
<title>four_in_a_row.src.button.Button</title>
<polygon fill="none" stroke="black" points="0,-226.5 0,-490.5 182,-490.5 182,-226.5 0,-226.5"/>
<text text-anchor="middle" x="91" y="-475.3" font-family="Times,serif" font-size="14.00">Button</text>
<polyline fill="none" stroke="black" points="0,-467.5 182,-467.5 "/>
<text text-anchor="start" x="8" y="-452.3" font-family="Times,serif" font-size="14.00">alpha : int</text>
<text text-anchor="start" x="8" y="-437.3" font-family="Times,serif" font-size="14.00">background_color</text>
<text text-anchor="start" x="8" y="-422.3" font-family="Times,serif" font-size="14.00">color</text>
<text text-anchor="start" x="8" y="-407.3" font-family="Times,serif" font-size="14.00">font : Font</text>
<text text-anchor="start" x="8" y="-392.3" font-family="Times,serif" font-size="14.00">font_str : Optional[str]</text>
<text text-anchor="start" x="8" y="-377.3" font-family="Times,serif" font-size="14.00">position</text>
<text text-anchor="start" x="8" y="-362.3" font-family="Times,serif" font-size="14.00">rect</text>
<text text-anchor="start" x="8" y="-347.3" font-family="Times,serif" font-size="14.00">rect_dim : tuple</text>
<text text-anchor="start" x="8" y="-332.3" font-family="Times,serif" font-size="14.00">size : int</text>
<text text-anchor="start" x="8" y="-317.3" font-family="Times,serif" font-size="14.00">surface</text>
<text text-anchor="start" x="8" y="-302.3" font-family="Times,serif" font-size="14.00">text : str</text>
<text text-anchor="start" x="8" y="-287.3" font-family="Times,serif" font-size="14.00">textRect</text>
<polyline fill="none" stroke="black" points="0,-279.5 182,-279.5 "/>
<text text-anchor="start" x="8" y="-264.3" font-family="Times,serif" font-size="14.00">blit_in(screen: Surface)</text>
<text text-anchor="start" x="8" y="-249.3" font-family="Times,serif" font-size="14.00">click()</text>
<text text-anchor="start" x="8" y="-234.3" font-family="Times,serif" font-size="14.00">make()</text>
</g>
<!-- four_in_a_row.src.menu.Menu -->
<g id="node11" class="node">
<title>four_in_a_row.src.menu.Menu</title>
<polygon fill="none" stroke="black" points="194,-702.5 194,-921.5 376,-921.5 376,-702.5 194,-702.5"/>
<text text-anchor="middle" x="285" y="-906.3" font-family="Times,serif" font-size="14.00">Menu</text>
<polyline fill="none" stroke="black" points="194,-898.5 376,-898.5 "/>
<text text-anchor="start" x="202" y="-883.3" font-family="Times,serif" font-size="14.00">button</text>
<text text-anchor="start" x="202" y="-868.3" font-family="Times,serif" font-size="14.00">height : int</text>
<text text-anchor="start" x="202" y="-853.3" font-family="Times,serif" font-size="14.00">joueur1 : str</text>
<text text-anchor="start" x="202" y="-838.3" font-family="Times,serif" font-size="14.00">joueur2 : str</text>
<text text-anchor="start" x="202" y="-823.3" font-family="Times,serif" font-size="14.00">length : int</text>
<text text-anchor="start" x="202" y="-808.3" font-family="Times,serif" font-size="14.00">score_player1</text>
<text text-anchor="start" x="202" y="-793.3" font-family="Times,serif" font-size="14.00">score_player2</text>
<text text-anchor="start" x="202" y="-778.3" font-family="Times,serif" font-size="14.00">side : int</text>
<text text-anchor="start" x="202" y="-763.3" font-family="Times,serif" font-size="14.00">surface</text>
<polyline fill="none" stroke="black" points="194,-755.5 376,-755.5 "/>
<text text-anchor="start" x="202" y="-740.3" font-family="Times,serif" font-size="14.00">blit_in(screen: Surface)</text>
<text text-anchor="start" x="202" y="-725.3" font-family="Times,serif" font-size="14.00">click()</text>
<text text-anchor="start" x="202" y="-710.3" font-family="Times,serif" font-size="14.00">update()</text>
</g>
<!-- four_in_a_row.src.button.Button&#45;&gt;four_in_a_row.src.menu.Menu -->
<g id="edge2" class="edge">
<title>four_in_a_row.src.button.Button&#45;&gt;four_in_a_row.src.menu.Menu</title>
<path fill="none" stroke="black" d="M101.76,-490.52C111,-552.08 128.15,-624.78 160,-684 167.11,-697.22 176.02,-709.99 185.78,-722.01"/>
<polygon fill="black" stroke="black" points="186.04,-722.32 192.97,-724.32 193.78,-731.48 186.86,-729.48 186.04,-722.32"/>
<text text-anchor="middle" x="184" y="-592.8" font-family="Times,serif" font-size="14.00" fill="green">button</text>
</g>
<!-- four_in_a_row.src.circle.Circle -->
<g id="node3" class="node">
<title>four_in_a_row.src.circle.Circle</title>
<polygon fill="none" stroke="black" points="654,-279 654,-438 890,-438 890,-279 654,-279"/>
<text text-anchor="middle" x="772" y="-422.8" font-family="Times,serif" font-size="14.00">Circle</text>
<polyline fill="none" stroke="black" points="654,-415 890,-415 "/>
<text text-anchor="start" x="662" y="-399.8" font-family="Times,serif" font-size="14.00">color</text>
<text text-anchor="start" x="662" y="-384.8" font-family="Times,serif" font-size="14.00">position</text>
<text text-anchor="start" x="662" y="-369.8" font-family="Times,serif" font-size="14.00">radius : int</text>
<polyline fill="none" stroke="black" points="654,-362 890,-362 "/>
<text text-anchor="start" x="662" y="-346.8" font-family="Times,serif" font-size="14.00">draw(screen: Surface)</text>
<text text-anchor="start" x="662" y="-331.8" font-family="Times,serif" font-size="14.00">get_color(): Color</text>
<text text-anchor="start" x="662" y="-316.8" font-family="Times,serif" font-size="14.00">get_position(): Position</text>
<text text-anchor="start" x="662" y="-301.8" font-family="Times,serif" font-size="14.00">get_radius(): int</text>
<text text-anchor="start" x="662" y="-286.8" font-family="Times,serif" font-size="14.00">set_position(position: Position)</text>
</g>
<!-- four_in_a_row.src.square.Square -->
<g id="node15" class="node">
<title>four_in_a_row.src.square.Square</title>
<polygon fill="none" stroke="black" points="823,-740 823,-884 1005,-884 1005,-740 823,-740"/>
<text text-anchor="middle" x="914" y="-868.8" font-family="Times,serif" font-size="14.00">Square</text>
<polyline fill="none" stroke="black" points="823,-861 1005,-861 "/>
<text text-anchor="start" x="831" y="-845.8" font-family="Times,serif" font-size="14.00">circle</text>
<text text-anchor="start" x="831" y="-830.8" font-family="Times,serif" font-size="14.00">position</text>
<text text-anchor="start" x="831" y="-815.8" font-family="Times,serif" font-size="14.00">rect</text>
<text text-anchor="start" x="831" y="-800.8" font-family="Times,serif" font-size="14.00">side : int</text>
<text text-anchor="start" x="831" y="-785.8" font-family="Times,serif" font-size="14.00">surface</text>
<polyline fill="none" stroke="black" points="823,-778 1005,-778 "/>
<text text-anchor="start" x="831" y="-762.8" font-family="Times,serif" font-size="14.00">blit_in(screen: Surface)</text>
<text text-anchor="start" x="831" y="-747.8" font-family="Times,serif" font-size="14.00">draw()</text>
</g>
<!-- four_in_a_row.src.circle.Circle&#45;&gt;four_in_a_row.src.square.Square -->
<g id="edge3" class="edge">
<title>four_in_a_row.src.circle.Circle&#45;&gt;four_in_a_row.src.square.Square</title>
<path fill="none" stroke="black" d="M798.74,-438.12C806.38,-460.94 814.63,-485.93 822,-509 845.57,-582.79 871.16,-667.15 889.35,-727.91"/>
<polygon fill="black" stroke="black" points="889.45,-728.25 895,-732.85 892.89,-739.74 887.33,-735.14 889.45,-728.25"/>
<text text-anchor="middle" x="896" y="-592.8" font-family="Times,serif" font-size="14.00" fill="green">circle</text>
</g>
<!-- four_in_a_row.src.token.Token -->
<g id="node18" class="node">
<title>four_in_a_row.src.token.Token</title>
<polygon fill="none" stroke="black" points="569,-725 569,-899 805,-899 805,-725 569,-725"/>
<text text-anchor="middle" x="687" y="-883.8" font-family="Times,serif" font-size="14.00">Token</text>
<polyline fill="none" stroke="black" points="569,-876 805,-876 "/>
<text text-anchor="start" x="577" y="-860.8" font-family="Times,serif" font-size="14.00">circle1</text>
<text text-anchor="start" x="577" y="-845.8" font-family="Times,serif" font-size="14.00">circle2</text>
<text text-anchor="start" x="577" y="-830.8" font-family="Times,serif" font-size="14.00">id : int</text>
<text text-anchor="start" x="577" y="-815.8" font-family="Times,serif" font-size="14.00">letter</text>
<text text-anchor="start" x="577" y="-800.8" font-family="Times,serif" font-size="14.00">position</text>
<text text-anchor="start" x="577" y="-785.8" font-family="Times,serif" font-size="14.00">surface</text>
<polyline fill="none" stroke="black" points="569,-778 805,-778 "/>
<text text-anchor="start" x="577" y="-762.8" font-family="Times,serif" font-size="14.00">blit_in(screen: Surface)</text>
<text text-anchor="start" x="577" y="-747.8" font-family="Times,serif" font-size="14.00">draw()</text>
<text text-anchor="start" x="577" y="-732.8" font-family="Times,serif" font-size="14.00">set_position(position: Position)</text>
</g>
<!-- four_in_a_row.src.circle.Circle&#45;&gt;four_in_a_row.src.token.Token -->
<g id="edge4" class="edge">
<title>four_in_a_row.src.circle.Circle&#45;&gt;four_in_a_row.src.token.Token</title>
<path fill="none" stroke="black" d="M771.65,-438.04C769.72,-504.5 763.03,-601.78 742,-684 739.52,-693.7 736.39,-703.62 732.88,-713.41"/>
<polygon fill="black" stroke="black" points="732.81,-713.59 734.46,-720.61 728.61,-724.83 726.97,-717.81 732.81,-713.59"/>
<text text-anchor="middle" x="793.5" y="-592.8" font-family="Times,serif" font-size="14.00" fill="green">circle1</text>
</g>
<!-- four_in_a_row.src.circle.Circle&#45;&gt;four_in_a_row.src.token.Token -->
<g id="edge5" class="edge">
<title>four_in_a_row.src.circle.Circle&#45;&gt;four_in_a_row.src.token.Token</title>
<path fill="none" stroke="black" d="M718.73,-438.22C706.58,-460.2 695.37,-484.74 689,-509 671.56,-575.42 671.45,-652.93 675.49,-712.79"/>
<polygon fill="black" stroke="black" points="675.5,-712.94 679.93,-718.63 676.38,-724.91 671.95,-719.21 675.5,-712.94"/>
<text text-anchor="middle" x="713.5" y="-592.8" font-family="Times,serif" font-size="14.00" fill="green">circle2</text>
</g>
<!-- four_in_a_row.src.color.Color -->
<g id="node4" class="node">
<title>four_in_a_row.src.color.Color</title>
<polygon fill="none" stroke="black" points="199.5,-30.5 199.5,-144.5 328.5,-144.5 328.5,-30.5 199.5,-30.5"/>
<text text-anchor="middle" x="264" y="-129.3" font-family="Times,serif" font-size="14.00">Color</text>
<polyline fill="none" stroke="black" points="199.5,-121.5 328.5,-121.5 "/>
<text text-anchor="start" x="207.5" y="-106.3" font-family="Times,serif" font-size="14.00">a : Optional[int]</text>
<text text-anchor="start" x="207.5" y="-91.3" font-family="Times,serif" font-size="14.00">b : int</text>
<text text-anchor="start" x="207.5" y="-76.3" font-family="Times,serif" font-size="14.00">g : int</text>
<text text-anchor="start" x="207.5" y="-61.3" font-family="Times,serif" font-size="14.00">r : int</text>
<polyline fill="none" stroke="black" points="199.5,-53.5 328.5,-53.5 "/>
<text text-anchor="start" x="207.5" y="-38.3" font-family="Times,serif" font-size="14.00">get(): tuple</text>
</g>
<!-- four_in_a_row.src.color.Color&#45;&gt;four_in_a_row.src.button.Button -->
<g id="edge6" class="edge">
<title>four_in_a_row.src.color.Color&#45;&gt;four_in_a_row.src.button.Button</title>
<path fill="none" stroke="black" d="M225.9,-144.69C215.46,-160.27 204.21,-177.24 194,-193 189.16,-200.47 184.22,-208.15 179.26,-215.92"/>
<polygon fill="black" stroke="black" points="179.17,-216.06 179.32,-223.27 172.72,-226.18 172.57,-218.97 179.17,-216.06"/>
<text text-anchor="middle" x="212" y="-196.8" font-family="Times,serif" font-size="14.00" fill="green">color</text>
</g>
<!-- four_in_a_row.src.color.Color&#45;&gt;four_in_a_row.src.button.Button -->
<g id="edge7" class="edge">
<title>four_in_a_row.src.color.Color&#45;&gt;four_in_a_row.src.button.Button</title>
<path fill="none" stroke="black" d="M199.4,-101.68C150.39,-115.44 86.3,-142.36 55,-193 50.81,-199.77 47.93,-206.97 46.11,-214.41"/>
<polygon fill="black" stroke="black" points="46.1,-214.47 49.04,-221.06 44.1,-226.3 41.15,-219.72 46.1,-214.47"/>
<text text-anchor="middle" x="118.5" y="-196.8" font-family="Times,serif" font-size="14.00" fill="green">background_color</text>
</g>
<!-- four_in_a_row.src.color.Color&#45;&gt;four_in_a_row.src.circle.Circle -->
<g id="edge8" class="edge">
<title>four_in_a_row.src.color.Color&#45;&gt;four_in_a_row.src.circle.Circle</title>
<path fill="none" stroke="black" d="M328.66,-90.56C414.46,-96.31 567.08,-117.35 670,-193 696.29,-212.32 717.31,-240.65 733.28,-268.38"/>
<polygon fill="black" stroke="black" points="733.32,-268.46 739.73,-271.77 739.15,-278.95 732.74,-275.65 733.32,-268.46"/>
<text text-anchor="middle" x="704" y="-196.8" font-family="Times,serif" font-size="14.00" fill="green">color</text>
</g>
<!-- four_in_a_row.src.letter.Letter -->
<g id="node10" class="node">
<title>four_in_a_row.src.letter.Letter</title>
<polygon fill="none" stroke="black" points="400,-241.5 400,-475.5 636,-475.5 636,-241.5 400,-241.5"/>
<text text-anchor="middle" x="518" y="-460.3" font-family="Times,serif" font-size="14.00">Letter</text>
<polyline fill="none" stroke="black" points="400,-452.5 636,-452.5 "/>
<text text-anchor="start" x="408" y="-437.3" font-family="Times,serif" font-size="14.00">alpha : int</text>
<text text-anchor="start" x="408" y="-422.3" font-family="Times,serif" font-size="14.00">color</text>
<text text-anchor="start" x="408" y="-407.3" font-family="Times,serif" font-size="14.00">font : Font</text>
<text text-anchor="start" x="408" y="-392.3" font-family="Times,serif" font-size="14.00">font_str : Optional[str]</text>
<text text-anchor="start" x="408" y="-377.3" font-family="Times,serif" font-size="14.00">letter : str</text>
<text text-anchor="start" x="408" y="-362.3" font-family="Times,serif" font-size="14.00">position</text>
<text text-anchor="start" x="408" y="-347.3" font-family="Times,serif" font-size="14.00">size : int</text>
<text text-anchor="start" x="408" y="-332.3" font-family="Times,serif" font-size="14.00">text : str</text>
<text text-anchor="start" x="408" y="-317.3" font-family="Times,serif" font-size="14.00">textRect</text>
<polyline fill="none" stroke="black" points="400,-309.5 636,-309.5 "/>
<text text-anchor="start" x="408" y="-294.3" font-family="Times,serif" font-size="14.00">draw(screen: Surface)</text>
<text text-anchor="start" x="408" y="-279.3" font-family="Times,serif" font-size="14.00">make()</text>
<text text-anchor="start" x="408" y="-264.3" font-family="Times,serif" font-size="14.00">set_position(position: Position)</text>
<text text-anchor="start" x="408" y="-249.3" font-family="Times,serif" font-size="14.00">update_letter(letter: str)</text>
</g>
<!-- four_in_a_row.src.color.Color&#45;&gt;four_in_a_row.src.letter.Letter -->
<g id="edge9" class="edge">
<title>four_in_a_row.src.color.Color&#45;&gt;four_in_a_row.src.letter.Letter</title>
<path fill="none" stroke="black" d="M328.63,-98.42C384.14,-110.6 461.42,-137 502,-193 509.94,-203.96 515.5,-216.47 519.29,-229.58"/>
<polygon fill="black" stroke="black" points="519.29,-229.59 524.61,-234.46 522.17,-241.24 516.84,-236.38 519.29,-229.59"/>
<text text-anchor="middle" x="528" y="-196.8" font-family="Times,serif" font-size="14.00" fill="green">color</text>
</g>
<!-- four_in_a_row.src.text_box.TextBox -->
<g id="node17" class="node">
<title>four_in_a_row.src.text_box.TextBox</title>
<polygon fill="none" stroke="black" points="200,-226.5 200,-490.5 382,-490.5 382,-226.5 200,-226.5"/>
<text text-anchor="middle" x="291" y="-475.3" font-family="Times,serif" font-size="14.00">TextBox</text>
<polyline fill="none" stroke="black" points="200,-467.5 382,-467.5 "/>
<text text-anchor="start" x="208" y="-452.3" font-family="Times,serif" font-size="14.00">alpha : int</text>
<text text-anchor="start" x="208" y="-437.3" font-family="Times,serif" font-size="14.00">background_color</text>
<text text-anchor="start" x="208" y="-422.3" font-family="Times,serif" font-size="14.00">color</text>
<text text-anchor="start" x="208" y="-407.3" font-family="Times,serif" font-size="14.00">font : Font</text>
<text text-anchor="start" x="208" y="-392.3" font-family="Times,serif" font-size="14.00">font_str : Optional[str]</text>
<text text-anchor="start" x="208" y="-377.3" font-family="Times,serif" font-size="14.00">position</text>
<text text-anchor="start" x="208" y="-362.3" font-family="Times,serif" font-size="14.00">rect</text>
<text text-anchor="start" x="208" y="-347.3" font-family="Times,serif" font-size="14.00">rect_dim : tuple</text>
<text text-anchor="start" x="208" y="-332.3" font-family="Times,serif" font-size="14.00">size : int</text>
<text text-anchor="start" x="208" y="-317.3" font-family="Times,serif" font-size="14.00">surface</text>
<text text-anchor="start" x="208" y="-302.3" font-family="Times,serif" font-size="14.00">text : str</text>
<text text-anchor="start" x="208" y="-287.3" font-family="Times,serif" font-size="14.00">textRect</text>
<polyline fill="none" stroke="black" points="200,-279.5 382,-279.5 "/>
<text text-anchor="start" x="208" y="-264.3" font-family="Times,serif" font-size="14.00">blit_in(screen: Surface)</text>
<text text-anchor="start" x="208" y="-249.3" font-family="Times,serif" font-size="14.00">make()</text>
<text text-anchor="start" x="208" y="-234.3" font-family="Times,serif" font-size="14.00">update(text: str)</text>
</g>
<!-- four_in_a_row.src.color.Color&#45;&gt;four_in_a_row.src.text_box.TextBox -->
<g id="edge10" class="edge">
<title>four_in_a_row.src.color.Color&#45;&gt;four_in_a_row.src.text_box.TextBox</title>
<path fill="none" stroke="black" d="M240.41,-144.74C234.72,-164.62 231.23,-187.2 235,-208 235.37,-210.06 235.77,-212.13 236.2,-214.21"/>
<polygon fill="black" stroke="black" points="236.25,-214.46 241.48,-219.43 238.89,-226.16 233.67,-221.19 236.25,-214.46"/>
<text text-anchor="middle" x="253" y="-196.8" font-family="Times,serif" font-size="14.00" fill="green">color</text>
</g>
<!-- four_in_a_row.src.color.Color&#45;&gt;four_in_a_row.src.text_box.TextBox -->
<g id="edge11" class="edge">
<title>four_in_a_row.src.color.Color&#45;&gt;four_in_a_row.src.text_box.TextBox</title>
<path fill="none" stroke="black" d="M269.63,-144.56C271.69,-165.14 274.14,-189.48 276.62,-214.22"/>
<polygon fill="black" stroke="black" points="276.64,-214.44 281.22,-220.01 277.84,-226.38 273.26,-220.81 276.64,-214.44"/>
<text text-anchor="middle" x="339.5" y="-196.8" font-family="Times,serif" font-size="14.00" fill="green">background_color</text>
</g>
<!-- four_in_a_row.src.conf.Conf -->
<g id="node5" class="node">
<title>four_in_a_row.src.conf.Conf</title>
<polygon fill="none" stroke="black" points="1102,-38 1102,-137 1236,-137 1236,-38 1102,-38"/>
<text text-anchor="middle" x="1169" y="-121.8" font-family="Times,serif" font-size="14.00">Conf</text>
<polyline fill="none" stroke="black" points="1102,-114 1236,-114 "/>
<text text-anchor="start" x="1110" y="-98.8" font-family="Times,serif" font-size="14.00">nb_columns : int</text>
<text text-anchor="start" x="1110" y="-83.8" font-family="Times,serif" font-size="14.00">nb_rows : int</text>
<text text-anchor="start" x="1110" y="-68.8" font-family="Times,serif" font-size="14.00">side : int</text>
<polyline fill="none" stroke="black" points="1102,-61 1236,-61 "/>
<text text-anchor="middle" x="1169" y="-45.8" font-family="Times,serif" font-size="14.00"> </text>
</g>
<!-- four_in_a_row.src.game_factory.GameFactory -->
<g id="node7" class="node">
<title>four_in_a_row.src.game_factory.GameFactory</title>
<polygon fill="none" stroke="black" points="1254.5,-52.5 1254.5,-122.5 1673.5,-122.5 1673.5,-52.5 1254.5,-52.5"/>
<text text-anchor="middle" x="1464" y="-107.3" font-family="Times,serif" font-size="14.00">GameFactory</text>
<polyline fill="none" stroke="black" points="1254.5,-99.5 1673.5,-99.5 "/>
<polyline fill="none" stroke="black" points="1254.5,-75.5 1673.5,-75.5 "/>
<text text-anchor="start" x="1262.5" y="-60.3" font-family="Times,serif" font-size="14.00">create(conf: Conf, name_player1: str, name_player2: str)</text>
</g>
<!-- four_in_a_row.src.grill.Grill -->
<g id="node8" class="node">
<title>four_in_a_row.src.grill.Grill</title>
<polygon fill="none" stroke="black" points="1035,-509.5 1035,-683.5 1217,-683.5 1217,-509.5 1035,-509.5"/>
<text text-anchor="middle" x="1126" y="-668.3" font-family="Times,serif" font-size="14.00">Grill</text>
<polyline fill="none" stroke="black" points="1035,-660.5 1217,-660.5 "/>
<text text-anchor="start" x="1043" y="-645.3" font-family="Times,serif" font-size="14.00">ls : list</text>
<text text-anchor="start" x="1043" y="-630.3" font-family="Times,serif" font-size="14.00">nb_colonnes : int</text>
<text text-anchor="start" x="1043" y="-615.3" font-family="Times,serif" font-size="14.00">nb_lignes : int</text>
<text text-anchor="start" x="1043" y="-600.3" font-family="Times,serif" font-size="14.00">position</text>
<text text-anchor="start" x="1043" y="-585.3" font-family="Times,serif" font-size="14.00">side : int</text>
<text text-anchor="start" x="1043" y="-570.3" font-family="Times,serif" font-size="14.00">surface</text>
<text text-anchor="start" x="1043" y="-555.3" font-family="Times,serif" font-size="14.00">translation : int</text>
<polyline fill="none" stroke="black" points="1035,-547.5 1217,-547.5 "/>
<text text-anchor="start" x="1043" y="-532.3" font-family="Times,serif" font-size="14.00">blit_in(screen: Surface)</text>
<text text-anchor="start" x="1043" y="-517.3" font-family="Times,serif" font-size="14.00">draw()</text>
</g>
<!-- four_in_a_row.src.grill.Grill&#45;&gt;four_in_a_row.src.game.Game -->
<g id="edge12" class="edge">
<title>four_in_a_row.src.grill.Grill&#45;&gt;four_in_a_row.src.game.Game</title>
<path fill="none" stroke="black" d="M1100.7,-683.78C1080.2,-750.08 1049.03,-843.33 1014,-922 960.98,-1041.09 892.34,-1168.21 831.65,-1273.91"/>
<polygon fill="black" stroke="black" points="831.6,-1274 832.07,-1281.2 825.61,-1284.4 825.14,-1277.21 831.6,-1274"/>
<text text-anchor="middle" x="1034" y="-1031.3" font-family="Times,serif" font-size="14.00" fill="green">grill_box</text>
</g>
<!-- four_in_a_row.src.grill_token.GrillToken -->
<g id="node9" class="node">
<title>four_in_a_row.src.grill_token.GrillToken</title>
<polygon fill="none" stroke="black" points="1100.5,-940.5 1100.5,-1129.5 1375.5,-1129.5 1375.5,-940.5 1100.5,-940.5"/>
<text text-anchor="middle" x="1238" y="-1114.3" font-family="Times,serif" font-size="14.00">GrillToken</text>
<polyline fill="none" stroke="black" points="1100.5,-1106.5 1375.5,-1106.5 "/>
<text text-anchor="start" x="1108.5" y="-1091.3" font-family="Times,serif" font-size="14.00">L_grill</text>
<text text-anchor="start" x="1108.5" y="-1076.3" font-family="Times,serif" font-size="14.00">l_grill</text>
<text text-anchor="start" x="1108.5" y="-1061.3" font-family="Times,serif" font-size="14.00">nb_colonnes : int</text>
<text text-anchor="start" x="1108.5" y="-1046.3" font-family="Times,serif" font-size="14.00">nb_lignes : int</text>
<text text-anchor="start" x="1108.5" y="-1031.3" font-family="Times,serif" font-size="14.00">position</text>
<text text-anchor="start" x="1108.5" y="-1016.3" font-family="Times,serif" font-size="14.00">side : int</text>
<text text-anchor="start" x="1108.5" y="-1001.3" font-family="Times,serif" font-size="14.00">surface</text>
<polyline fill="none" stroke="black" points="1100.5,-993.5 1375.5,-993.5 "/>
<text text-anchor="start" x="1108.5" y="-978.3" font-family="Times,serif" font-size="14.00">add_token(token: Token, i: int, j: int)</text>
<text text-anchor="start" x="1108.5" y="-963.3" font-family="Times,serif" font-size="14.00">blit_in(screen: Surface)</text>
<text text-anchor="start" x="1108.5" y="-948.3" font-family="Times,serif" font-size="14.00">restart()</text>
</g>
<!-- four_in_a_row.src.grill_token.GrillToken&#45;&gt;four_in_a_row.src.game.Game -->
<g id="edge13" class="edge">
<title>four_in_a_row.src.grill_token.GrillToken&#45;&gt;four_in_a_row.src.game.Game</title>
<path fill="none" stroke="black" d="M1169.9,-1129.59C1135.61,-1173.51 1091.86,-1225.07 1047,-1266 983.35,-1324.06 905.25,-1379.26 838.08,-1422.69"/>
<polygon fill="black" stroke="black" points="837.92,-1422.79 835.04,-1429.4 827.83,-1429.28 830.71,-1422.67 837.92,-1422.79"/>
<text text-anchor="middle" x="1191" y="-1186.8" font-family="Times,serif" font-size="14.00" fill="green">grill_token</text>
</g>
<!-- four_in_a_row.src.letter.Letter&#45;&gt;four_in_a_row.src.token.Token -->
<g id="edge14" class="edge">
<title>four_in_a_row.src.letter.Letter&#45;&gt;four_in_a_row.src.token.Token</title>
<path fill="none" stroke="black" d="M555.3,-475.69C575.99,-537.96 602.95,-615.71 630,-684 633.81,-693.63 637.95,-703.6 642.19,-713.52"/>
<polygon fill="black" stroke="black" points="642.25,-713.66 648.31,-717.58 647.02,-724.68 640.96,-720.76 642.25,-713.66"/>
<text text-anchor="middle" x="650" y="-592.8" font-family="Times,serif" font-size="14.00" fill="green">letter</text>
</g>
<!-- four_in_a_row.src.menu.Menu&#45;&gt;four_in_a_row.src.game.Game -->
<g id="edge15" class="edge">
<title>four_in_a_row.src.menu.Menu&#45;&gt;four_in_a_row.src.game.Game</title>
<path fill="none" stroke="black" d="M316.1,-921.66C336.18,-984.47 365.22,-1063.9 401,-1130 439.7,-1201.5 490.67,-1274.37 538.84,-1337.09"/>
<polygon fill="black" stroke="black" points="538.9,-1337.16 545.74,-1339.47 546.24,-1346.66 539.4,-1344.36 538.9,-1337.16"/>
<text text-anchor="middle" x="482" y="-1186.8" font-family="Times,serif" font-size="14.00" fill="green">menu</text>
</g>
<!-- four_in_a_row.src.player.Player -->
<g id="node12" class="node">
<title>four_in_a_row.src.player.Player</title>
<polygon fill="none" stroke="black" points="642.5,-1148.5 642.5,-1232.5 731.5,-1232.5 731.5,-1148.5 642.5,-1148.5"/>
<text text-anchor="middle" x="687" y="-1217.3" font-family="Times,serif" font-size="14.00">Player</text>
<polyline fill="none" stroke="black" points="642.5,-1209.5 731.5,-1209.5 "/>
<text text-anchor="start" x="650.5" y="-1194.3" font-family="Times,serif" font-size="14.00">name : str</text>
<text text-anchor="start" x="650.5" y="-1179.3" font-family="Times,serif" font-size="14.00">token</text>
<polyline fill="none" stroke="black" points="642.5,-1171.5 731.5,-1171.5 "/>
<text text-anchor="middle" x="687" y="-1156.3" font-family="Times,serif" font-size="14.00"> </text>
</g>
<!-- four_in_a_row.src.player.Player&#45;&gt;four_in_a_row.src.game.Game -->
<g id="edge16" class="edge">
<title>four_in_a_row.src.player.Player&#45;&gt;four_in_a_row.src.game.Game</title>
<path fill="none" stroke="black" d="M687,-1232.54C687,-1243.98 687,-1257.29 687,-1271.77"/>
<polygon fill="black" stroke="black" points="687,-1272.19 691,-1278.19 687,-1284.19 683,-1278.19 687,-1272.19"/>
<text text-anchor="middle" x="714.5" y="-1254.8" font-family="Times,serif" font-size="14.00" fill="green">player1</text>
</g>
<!-- four_in_a_row.src.player.Player&#45;&gt;four_in_a_row.src.game.Game -->
<g id="edge17" class="edge">
<title>four_in_a_row.src.player.Player&#45;&gt;four_in_a_row.src.game.Game</title>
<path fill="none" stroke="black" d="M731.56,-1231.22C736.2,-1237.37 740.23,-1244.01 743,-1251 745.78,-1258.01 747.98,-1265.18 749.67,-1272.47"/>
<polygon fill="black" stroke="black" points="749.7,-1272.63 754.77,-1277.76 751.97,-1284.41 746.91,-1279.28 749.7,-1272.63"/>
<text text-anchor="middle" x="775.5" y="-1254.8" font-family="Times,serif" font-size="14.00" fill="green">player2</text>
</g>
<!-- four_in_a_row.src.player.Player&#45;&gt;four_in_a_row.src.game.Game -->
<g id="edge18" class="edge">
<title>four_in_a_row.src.player.Player&#45;&gt;four_in_a_row.src.game.Game</title>
<path fill="none" stroke="black" d="M642.34,-1201.84C608.81,-1212.4 569.81,-1232.16 577,-1266 577.46,-1268.19 577.95,-1270.38 578.46,-1272.57"/>
<polygon fill="black" stroke="black" points="578.48,-1272.67 583.8,-1277.55 581.34,-1284.33 576.03,-1279.45 578.48,-1272.67"/>
<text text-anchor="middle" x="630" y="-1254.8" font-family="Times,serif" font-size="14.00" fill="green">current_player</text>
</g>
<!-- four_in_a_row.src.player_factory.PlayerFactory -->
<g id="node13" class="node">
<title>four_in_a_row.src.player_factory.PlayerFactory</title>
<polygon fill="none" stroke="black" points="1691.5,-53 1691.5,-122 2202.5,-122 2202.5,-53 1691.5,-53"/>
<text text-anchor="middle" x="1947" y="-106.8" font-family="Times,serif" font-size="14.00">PlayerFactory</text>
<polyline fill="none" stroke="black" points="1691.5,-99 2202.5,-99 "/>
<text text-anchor="start" x="1699.5" y="-83.8" font-family="Times,serif" font-size="14.00">current_id : int</text>
<polyline fill="none" stroke="black" points="1691.5,-76 2202.5,-76 "/>
<text text-anchor="start" x="1699.5" y="-60.8" font-family="Times,serif" font-size="14.00">create(name: str, radius: int, color: Color, color2: Color, p_edge: float)</text>
</g>
<!-- four_in_a_row.src.position.Position -->
<g id="node14" class="node">
<title>four_in_a_row.src.position.Position</title>
<polygon fill="none" stroke="black" points="692,-0.5 692,-174.5 1084,-174.5 1084,-0.5 692,-0.5"/>
<text text-anchor="middle" x="888" y="-159.3" font-family="Times,serif" font-size="14.00">Position</text>
<polyline fill="none" stroke="black" points="692,-151.5 1084,-151.5 "/>
<text text-anchor="start" x="700" y="-136.3" font-family="Times,serif" font-size="14.00">x : int</text>
<text text-anchor="start" x="700" y="-121.3" font-family="Times,serif" font-size="14.00">y : int</text>
<polyline fill="none" stroke="black" points="692,-113.5 1084,-113.5 "/>
<text text-anchor="start" x="700" y="-98.3" font-family="Times,serif" font-size="14.00">get_column(side: int, translation: int): int</text>
<text text-anchor="start" x="700" y="-83.3" font-family="Times,serif" font-size="14.00">get_position()</text>
<text text-anchor="start" x="700" y="-68.3" font-family="Times,serif" font-size="14.00">get_position_token(i: int, j: int, l_box: int, L_grill: int)</text>
<text text-anchor="start" x="700" y="-53.3" font-family="Times,serif" font-size="14.00">get_top_left_position(radius: int)</text>
<text text-anchor="start" x="700" y="-38.3" font-family="Times,serif" font-size="14.00">get_x()</text>
<text text-anchor="start" x="700" y="-23.3" font-family="Times,serif" font-size="14.00">get_y()</text>
<text text-anchor="start" x="700" y="-8.3" font-family="Times,serif" font-size="14.00">set_position(x: int, y: int)</text>
</g>
<!-- four_in_a_row.src.position.Position&#45;&gt;four_in_a_row.src.button.Button -->
<g id="edge19" class="edge">
<title>four_in_a_row.src.position.Position&#45;&gt;four_in_a_row.src.button.Button</title>
<path fill="none" stroke="black" d="M691.87,-125.46C612.66,-142.65 521,-165.45 440,-193 424.75,-198.19 422.59,-203.94 407,-208 363.48,-219.34 249.76,-205 193.28,-226.25"/>
<polygon fill="black" stroke="black" points="193.05,-226.36 189.26,-232.49 182.14,-231.35 185.93,-225.22 193.05,-226.36"/>
<text text-anchor="middle" x="469" y="-196.8" font-family="Times,serif" font-size="14.00" fill="green">position</text>
</g>
<!-- four_in_a_row.src.position.Position&#45;&gt;four_in_a_row.src.circle.Circle -->
<g id="edge20" class="edge">
<title>four_in_a_row.src.position.Position&#45;&gt;four_in_a_row.src.circle.Circle</title>
<path fill="none" stroke="black" d="M850.82,-174.72C838.07,-204.29 823.77,-237.45 810.89,-267.33"/>
<polygon fill="black" stroke="black" points="810.78,-267.58 812.07,-274.68 806.02,-278.6 804.73,-271.51 810.78,-267.58"/>
<text text-anchor="middle" x="870" y="-196.8" font-family="Times,serif" font-size="14.00" fill="green">position</text>
</g>
<!-- four_in_a_row.src.position.Position&#45;&gt;four_in_a_row.src.grill.Grill -->
<g id="edge21" class="edge">
<title>four_in_a_row.src.position.Position&#45;&gt;four_in_a_row.src.grill.Grill</title>
<path fill="none" stroke="black" d="M1038.94,-174.86C1055.67,-189.96 1070.71,-207.02 1082,-226 1130.73,-307.96 1137.89,-418.25 1135.22,-496.95"/>
<polygon fill="black" stroke="black" points="1135.21,-497.31 1138.96,-503.47 1134.72,-509.3 1130.97,-503.14 1135.21,-497.31"/>
<text text-anchor="middle" x="1098" y="-196.8" font-family="Times,serif" font-size="14.00" fill="green">position</text>
</g>
<!-- four_in_a_row.src.position.Position&#45;&gt;four_in_a_row.src.grill_token.GrillToken -->
<g id="edge22" class="edge">
<title>four_in_a_row.src.position.Position&#45;&gt;four_in_a_row.src.grill_token.GrillToken</title>
<path fill="none" stroke="black" d="M1084.04,-171.33C1110.76,-182.94 1129.66,-191.49 1131,-193 1313.17,-399.04 1286.41,-752.37 1258.66,-928.19"/>
<polygon fill="black" stroke="black" points="1258.63,-928.44 1261.62,-935 1256.71,-940.28 1253.72,-933.72 1258.63,-928.44"/>
<text text-anchor="middle" x="1291" y="-354.8" font-family="Times,serif" font-size="14.00" fill="green">position</text>
</g>
<!-- four_in_a_row.src.position.Position&#45;&gt;four_in_a_row.src.letter.Letter -->
<g id="edge23" class="edge">
<title>four_in_a_row.src.position.Position&#45;&gt;four_in_a_row.src.letter.Letter</title>
<path fill="none" stroke="black" d="M796.49,-174.73C779.35,-187.47 760.87,-199.24 742,-208 702.23,-226.47 683.62,-205.24 645,-226 640.23,-228.56 635.54,-231.37 630.92,-234.37"/>
<polygon fill="black" stroke="black" points="630.84,-234.43 628.17,-241.13 620.96,-241.25 623.63,-234.55 630.84,-234.43"/>
<text text-anchor="middle" x="799" y="-196.8" font-family="Times,serif" font-size="14.00" fill="green">position</text>
</g>
<!-- four_in_a_row.src.position.Position&#45;&gt;four_in_a_row.src.square.Square -->
<g id="edge24" class="edge">
<title>four_in_a_row.src.position.Position&#45;&gt;four_in_a_row.src.square.Square</title>
<path fill="none" stroke="black" d="M962.76,-174.58C973.13,-190.73 982.2,-208.18 988,-226 1044.16,-398.71 986.95,-612.99 946.52,-728.28"/>
<polygon fill="black" stroke="black" points="946.44,-728.5 948.2,-735.49 942.42,-739.8 940.66,-732.81 946.44,-728.5"/>
<text text-anchor="middle" x="1040" y="-354.8" font-family="Times,serif" font-size="14.00" fill="green">position</text>
</g>
<!-- four_in_a_row.src.position.Position&#45;&gt;four_in_a_row.src.text_box.TextBox -->
<g id="edge25" class="edge">
<title>four_in_a_row.src.position.Position&#45;&gt;four_in_a_row.src.text_box.TextBox</title>
<path fill="none" stroke="black" d="M691.84,-166.3C645.89,-182.15 596.7,-197.25 550,-208 484.35,-223.11 455.89,-194.22 393.04,-225.65"/>
<polygon fill="black" stroke="black" points="392.77,-225.79 389.38,-232.15 382.21,-231.47 385.59,-225.11 392.77,-225.79"/>
<text text-anchor="middle" x="636" y="-196.8" font-family="Times,serif" font-size="14.00" fill="green">position</text>
</g>
<!-- four_in_a_row.src.position.Position&#45;&gt;four_in_a_row.src.token.Token -->
<g id="edge26" class="edge">
<title>four_in_a_row.src.position.Position&#45;&gt;four_in_a_row.src.token.Token</title>
<path fill="none" stroke="black" d="M901.14,-174.52C901.85,-180.76 902.48,-186.97 903,-193 907.66,-247.37 946.92,-642.08 912,-684 883.66,-718.02 853.96,-682.92 814,-702 804.57,-706.5 795.28,-711.89 786.28,-717.83"/>
<polygon fill="black" stroke="black" points="786.13,-717.93 783.47,-724.63 776.26,-724.75 778.92,-718.05 786.13,-717.93"/>
<text text-anchor="middle" x="954" y="-354.8" font-family="Times,serif" font-size="14.00" fill="green">position</text>
</g>
<!-- four_in_a_row.src.square_factory.SquareFactory -->
<g id="node16" class="node">
<title>four_in_a_row.src.square_factory.SquareFactory</title>
<polygon fill="none" stroke="black" points="2221,-52.5 2221,-122.5 2483,-122.5 2483,-52.5 2221,-52.5"/>
<text text-anchor="middle" x="2352" y="-107.3" font-family="Times,serif" font-size="14.00">SquareFactory</text>
<polyline fill="none" stroke="black" points="2221,-99.5 2483,-99.5 "/>
<polyline fill="none" stroke="black" points="2221,-75.5 2483,-75.5 "/>
<text text-anchor="start" x="2229" y="-60.3" font-family="Times,serif" font-size="14.00">create(position: Position, side: int)</text>
</g>
<!-- four_in_a_row.src.text_box.TextBox&#45;&gt;four_in_a_row.src.alert.Alert -->
<g id="edge27" class="edge">
<title>four_in_a_row.src.text_box.TextBox&#45;&gt;four_in_a_row.src.alert.Alert</title>
<path fill="none" stroke="black" d="M382.23,-483.91C385.11,-486.37 388.03,-488.74 391,-491 408.14,-504.05 422.85,-491.94 436,-509 530.68,-631.82 528.74,-821.01 516.45,-935.59"/>
<polygon fill="black" stroke="black" points="516.41,-935.89 519.72,-942.3 515.07,-947.81 511.77,-941.4 516.41,-935.89"/>
<text text-anchor="middle" x="525" y="-592.8" font-family="Times,serif" font-size="14.00" fill="green">alert</text>
</g>
<!-- four_in_a_row.src.text_box.TextBox&#45;&gt;four_in_a_row.src.menu.Menu -->
<g id="edge28" class="edge">
<title>four_in_a_row.src.text_box.TextBox&#45;&gt;four_in_a_row.src.menu.Menu</title>
<path fill="none" stroke="black" d="M228.68,-490.54C226.89,-496.71 225.31,-502.88 224,-509 207.74,-585.06 206.73,-608.16 224,-684 224.5,-686.19 225.04,-688.38 225.62,-690.57"/>
<polygon fill="black" stroke="black" points="225.69,-690.81 231.21,-695.44 229.06,-702.32 223.54,-697.69 225.69,-690.81"/>
<text text-anchor="middle" x="274" y="-592.8" font-family="Times,serif" font-size="14.00" fill="green">score_player1</text>
</g>
<!-- four_in_a_row.src.text_box.TextBox&#45;&gt;four_in_a_row.src.menu.Menu -->
<g id="edge29" class="edge">
<title>four_in_a_row.src.text_box.TextBox&#45;&gt;four_in_a_row.src.menu.Menu</title>
<path fill="none" stroke="black" d="M321.66,-490.9C322.56,-497 323.35,-503.05 324,-509 332.43,-586.32 335.54,-607.08 324,-684 323.67,-686.17 323.32,-688.36 322.94,-690.56"/>
<polygon fill="black" stroke="black" points="322.93,-690.59 325.71,-697.24 320.65,-702.37 317.86,-695.72 322.93,-690.59"/>
<text text-anchor="middle" x="382" y="-592.8" font-family="Times,serif" font-size="14.00" fill="green">score_player2</text>
</g>
<!-- four_in_a_row.src.token.Token&#45;&gt;four_in_a_row.src.player.Player -->
<g id="edge30" class="edge">
<title>four_in_a_row.src.token.Token&#45;&gt;four_in_a_row.src.player.Player</title>
<path fill="none" stroke="black" d="M687,-899.38C687,-972.29 687,-1074.39 687,-1136"/>
<polygon fill="black" stroke="black" points="687,-1136.14 691,-1142.14 687,-1148.14 683,-1142.14 687,-1136.14"/>
<text text-anchor="middle" x="707" y="-1031.3" font-family="Times,serif" font-size="14.00" fill="green">token</text>
</g>
<!-- four_in_a_row.src.token_factory.TokenFactory -->
<g id="node19" class="node">
<title>four_in_a_row.src.token_factory.TokenFactory</title>
<polygon fill="none" stroke="black" points="2501.5,-52.5 2501.5,-122.5 3064.5,-122.5 3064.5,-52.5 2501.5,-52.5"/>
<text text-anchor="middle" x="2783" y="-107.3" font-family="Times,serif" font-size="14.00">TokenFactory</text>
<polyline fill="none" stroke="black" points="2501.5,-99.5 3064.5,-99.5 "/>
<polyline fill="none" stroke="black" points="2501.5,-75.5 3064.5,-75.5 "/>
<text text-anchor="start" x="2509.5" y="-60.3" font-family="Times,serif" font-size="14.00">create(id: int, radius: int, color: Color, color2: Color, letter: str, p_edge: float)</text>
</g>
</g>
</svg>
