<?xml version="1.0" encoding="UTF-8" standalone="no"?>
<!DOCTYPE svg PUBLIC "-//W3C//DTD SVG 1.1//EN"
 "http://www.w3.org/Graphics/SVG/1.1/DTD/svg11.dtd">
<!-- Generated by graphviz version 2.43.0 (0)
 -->
<!-- Title: packages Pages: 1 -->
<svg width="1769pt" height="476pt"
 viewBox="0.00 0.00 1769.00 476.00" xmlns="http://www.w3.org/2000/svg" xmlns:xlink="http://www.w3.org/1999/xlink">
<g id="graph0" class="graph" transform="scale(1 1) rotate(0) translate(4 472)">
<title>packages</title>
<polygon fill="white" stroke="transparent" points="-4,4 -4,-472 1765,-472 1765,4 -4,4"/>
<!-- four_in_a_row -->
<g id="node1" class="node">
<title>four_in_a_row</title>
<polygon fill="none" stroke="black" points="445.5,-36 330.5,-36 330.5,0 445.5,0 445.5,-36"/>
<text text-anchor="middle" x="388" y="-14.3" font-family="Times,serif" font-size="14.00">four_in_a_row</text>
</g>
<!-- four_in_a_row.src -->
<g id="node2" class="node">
<title>four_in_a_row.src</title>
<polygon fill="none" stroke="black" points="604,-36 464,-36 464,0 604,0 604,-36"/>
<text text-anchor="middle" x="534" y="-14.3" font-family="Times,serif" font-size="14.00">four_in_a_row.src</text>
</g>
<!-- four_in_a_row.src.alert -->
<g id="node3" class="node">
<title>four_in_a_row.src.alert</title>
<polygon fill="none" stroke="black" points="655,-180 477,-180 477,-144 655,-144 655,-180"/>
<text text-anchor="middle" x="566" y="-158.3" font-family="Times,serif" font-size="14.00">four_in_a_row.src.alert</text>
</g>
<!-- four_in_a_row.src.color -->
<g id="node6" class="node">
<title>four_in_a_row.src.color</title>
<polygon fill="none" stroke="black" points="1360.5,-468 1181.5,-468 1181.5,-432 1360.5,-432 1360.5,-468"/>
<text text-anchor="middle" x="1271" y="-446.3" font-family="Times,serif" font-size="14.00">four_in_a_row.src.color</text>
</g>
<!-- four_in_a_row.src.alert&#45;&gt;four_in_a_row.src.color -->
<g id="edge1" class="edge">
<title>four_in_a_row.src.alert&#45;&gt;four_in_a_row.src.color</title>
<path fill="none" stroke="black" d="M655.1,-166.93C871.48,-176.67 1408,-202.17 1421,-216 1475.79,-274.29 1467.19,-330.68 1421,-396 1408.68,-413.42 1390.13,-425.16 1370.24,-433.05"/>
<polygon fill="black" stroke="black" points="1360.7,-436.52 1368.56,-428.87 1365.4,-434.81 1370.1,-433.1 1370.1,-433.1 1370.1,-433.1 1365.4,-434.81 1371.64,-437.33 1360.7,-436.52 1360.7,-436.52"/>
</g>
<!-- four_in_a_row.src.position -->
<g id="node17" class="node">
<title>four_in_a_row.src.position</title>
<polygon fill="none" stroke="black" points="390.5,-468 189.5,-468 189.5,-432 390.5,-432 390.5,-468"/>
<text text-anchor="middle" x="290" y="-446.3" font-family="Times,serif" font-size="14.00">four_in_a_row.src.position</text>
</g>
<!-- four_in_a_row.src.alert&#45;&gt;four_in_a_row.src.position -->
<g id="edge2" class="edge">
<title>four_in_a_row.src.alert&#45;&gt;four_in_a_row.src.position</title>
<path fill="none" stroke="black" d="M527.03,-180.08C449.08,-214.25 281.35,-287.77 281,-288 241.52,-313.83 221.92,-316.78 203,-360 196.58,-374.66 195.16,-382.05 203,-396 210.25,-408.9 222.06,-419.04 234.67,-426.83"/>
<polygon fill="black" stroke="black" points="243.48,-431.85 232.56,-430.81 239.14,-429.38 234.79,-426.9 234.79,-426.9 234.79,-426.9 239.14,-429.38 237.02,-422.99 243.48,-431.85 243.48,-431.85"/>
</g>
<!-- four_in_a_row.src.text_box -->
<g id="node20" class="node">
<title>four_in_a_row.src.text_box</title>
<polygon fill="none" stroke="black" points="670.5,-396 465.5,-396 465.5,-360 670.5,-360 670.5,-396"/>
<text text-anchor="middle" x="568" y="-374.3" font-family="Times,serif" font-size="14.00">four_in_a_row.src.text_box</text>
</g>
<!-- four_in_a_row.src.alert&#45;&gt;four_in_a_row.src.text_box -->
<g id="edge3" class="edge">
<title>four_in_a_row.src.alert&#45;&gt;four_in_a_row.src.text_box</title>
<path fill="none" stroke="black" d="M566.16,-180.15C566.51,-217.17 567.33,-304.82 567.74,-349.61"/>
<polygon fill="black" stroke="black" points="567.84,-359.77 563.25,-349.81 567.79,-354.77 567.75,-349.77 567.75,-349.77 567.75,-349.77 567.79,-354.77 572.25,-349.73 567.84,-359.77 567.84,-359.77"/>
</g>
<!-- four_in_a_row.src.button -->
<g id="node4" class="node">
<title>four_in_a_row.src.button</title>
<polygon fill="none" stroke="black" points="447.5,-396 256.5,-396 256.5,-360 447.5,-360 447.5,-396"/>
<text text-anchor="middle" x="352" y="-374.3" font-family="Times,serif" font-size="14.00">four_in_a_row.src.button</text>
</g>
<!-- four_in_a_row.src.button&#45;&gt;four_in_a_row.src.color -->
<g id="edge4" class="edge">
<title>four_in_a_row.src.button&#45;&gt;four_in_a_row.src.color</title>
<path fill="none" stroke="black" d="M447.52,-394.86C450.71,-395.27 453.88,-395.65 457,-396 713.37,-425.03 1017.11,-439.59 1170.95,-445.56"/>
<polygon fill="black" stroke="black" points="1181.32,-445.96 1171.15,-450.07 1176.32,-445.77 1171.32,-445.58 1171.32,-445.58 1171.32,-445.58 1176.32,-445.77 1171.5,-441.08 1181.32,-445.96 1181.32,-445.96"/>
</g>
<!-- four_in_a_row.src.button&#45;&gt;four_in_a_row.src.position -->
<g id="edge5" class="edge">
<title>four_in_a_row.src.button&#45;&gt;four_in_a_row.src.position</title>
<path fill="none" stroke="black" d="M336.67,-396.3C329.24,-404.7 320.18,-414.93 312.02,-424.14"/>
<polygon fill="black" stroke="black" points="305.15,-431.9 308.41,-421.43 308.46,-428.15 311.78,-424.41 311.78,-424.41 311.78,-424.41 308.46,-428.15 315.15,-427.39 305.15,-431.9 305.15,-431.9"/>
</g>
<!-- four_in_a_row.src.circle -->
<g id="node5" class="node">
<title>four_in_a_row.src.circle</title>
<polygon fill="none" stroke="black" points="1062.5,-396 879.5,-396 879.5,-360 1062.5,-360 1062.5,-396"/>
<text text-anchor="middle" x="971" y="-374.3" font-family="Times,serif" font-size="14.00">four_in_a_row.src.circle</text>
</g>
<!-- four_in_a_row.src.circle&#45;&gt;four_in_a_row.src.color -->
<g id="edge6" class="edge">
<title>four_in_a_row.src.circle&#45;&gt;four_in_a_row.src.color</title>
<path fill="none" stroke="black" d="M1044,-396.03C1087.55,-406.2 1142.98,-419.13 1188.16,-429.67"/>
<polygon fill="black" stroke="black" points="1197.93,-431.95 1187.17,-434.06 1193.06,-430.81 1188.19,-429.68 1188.19,-429.68 1188.19,-429.68 1193.06,-430.81 1189.21,-425.3 1197.93,-431.95 1197.93,-431.95"/>
</g>
<!-- four_in_a_row.src.circle&#45;&gt;four_in_a_row.src.position -->
<g id="edge7" class="edge">
<title>four_in_a_row.src.circle&#45;&gt;four_in_a_row.src.position</title>
<path fill="none" stroke="black" d="M879.41,-394.08C874.54,-394.76 869.72,-395.41 865,-396 704.13,-416.29 517.01,-432.1 401.02,-440.99"/>
<polygon fill="black" stroke="black" points="390.72,-441.77 400.35,-436.53 395.7,-441.39 400.69,-441.01 400.69,-441.01 400.69,-441.01 395.7,-441.39 401.03,-445.5 390.72,-441.77 390.72,-441.77"/>
</g>
<!-- four_in_a_row.src.conf -->
<g id="node7" class="node">
<title>four_in_a_row.src.conf</title>
<polygon fill="none" stroke="black" points="1761,-108 1587,-108 1587,-72 1761,-72 1761,-108"/>
<text text-anchor="middle" x="1674" y="-86.3" font-family="Times,serif" font-size="14.00">four_in_a_row.src.conf</text>
</g>
<!-- four_in_a_row.src.four_in_a_row -->
<g id="node8" class="node">
<title>four_in_a_row.src.four_in_a_row</title>
<polygon fill="none" stroke="black" points="1122,-36 880,-36 880,0 1122,0 1122,-36"/>
<text text-anchor="middle" x="1001" y="-14.3" font-family="Times,serif" font-size="14.00">four_in_a_row.src.four_in_a_row</text>
</g>
<!-- four_in_a_row.src.game -->
<g id="node9" class="node">
<title>four_in_a_row.src.game</title>
<polygon fill="none" stroke="black" points="773.5,-108 590.5,-108 590.5,-72 773.5,-72 773.5,-108"/>
<text text-anchor="middle" x="682" y="-86.3" font-family="Times,serif" font-size="14.00">four_in_a_row.src.game</text>
</g>
<!-- four_in_a_row.src.game&#45;&gt;four_in_a_row.src.alert -->
<g id="edge8" class="edge">
<title>four_in_a_row.src.game&#45;&gt;four_in_a_row.src.alert</title>
<path fill="none" stroke="black" d="M653.62,-108.12C638.46,-117.28 619.59,-128.66 603.26,-138.52"/>
<polygon fill="black" stroke="black" points="594.49,-143.81 600.72,-134.79 598.77,-141.23 603.05,-138.64 603.05,-138.64 603.05,-138.64 598.77,-141.23 605.37,-142.5 594.49,-143.81 594.49,-143.81"/>
</g>
<!-- four_in_a_row.src.game&#45;&gt;four_in_a_row.src.color -->
<g id="edge9" class="edge">
<title>four_in_a_row.src.game&#45;&gt;four_in_a_row.src.color</title>
<path fill="none" stroke="black" d="M773.62,-92.45C890.66,-95.84 1098.92,-107.05 1273,-144 1387.55,-168.31 1521,-115.9 1521,-233 1521,-233 1521,-233 1521,-307 1521,-349.84 1516.48,-368.07 1484,-396 1452.77,-422.86 1409.94,-436.49 1370.87,-443.27"/>
<polygon fill="black" stroke="black" points="1360.5,-444.92 1369.67,-438.9 1365.44,-444.13 1370.38,-443.35 1370.38,-443.35 1370.38,-443.35 1365.44,-444.13 1371.09,-447.79 1360.5,-444.92 1360.5,-444.92"/>
</g>
<!-- four_in_a_row.src.grill -->
<g id="node11" class="node">
<title>four_in_a_row.src.grill</title>
<polygon fill="none" stroke="black" points="353.5,-180 180.5,-180 180.5,-144 353.5,-144 353.5,-180"/>
<text text-anchor="middle" x="267" y="-158.3" font-family="Times,serif" font-size="14.00">four_in_a_row.src.grill</text>
</g>
<!-- four_in_a_row.src.game&#45;&gt;four_in_a_row.src.grill -->
<g id="edge10" class="edge">
<title>four_in_a_row.src.game&#45;&gt;four_in_a_row.src.grill</title>
<path fill="none" stroke="black" d="M590.41,-106.45C523.18,-117.79 432.05,-133.16 363.66,-144.7"/>
<polygon fill="black" stroke="black" points="353.74,-146.37 362.85,-140.27 358.67,-145.54 363.6,-144.71 363.6,-144.71 363.6,-144.71 358.67,-145.54 364.35,-149.14 353.74,-146.37 353.74,-146.37"/>
</g>
<!-- four_in_a_row.src.grill_token -->
<g id="node12" class="node">
<title>four_in_a_row.src.grill_token</title>
<polygon fill="none" stroke="black" points="912,-252 692,-252 692,-216 912,-216 912,-252"/>
<text text-anchor="middle" x="802" y="-230.3" font-family="Times,serif" font-size="14.00">four_in_a_row.src.grill_token</text>
</g>
<!-- four_in_a_row.src.game&#45;&gt;four_in_a_row.src.grill_token -->
<g id="edge11" class="edge">
<title>four_in_a_row.src.game&#45;&gt;four_in_a_row.src.grill_token</title>
<path fill="none" stroke="black" d="M693.92,-108.28C706.81,-126.63 728.32,-156.2 749,-180 757.53,-189.82 767.49,-200.06 776.45,-208.89"/>
<polygon fill="black" stroke="black" points="783.69,-215.93 773.39,-212.18 780.11,-212.44 776.52,-208.96 776.52,-208.96 776.52,-208.96 780.11,-212.44 779.66,-205.73 783.69,-215.93 783.69,-215.93"/>
</g>
<!-- four_in_a_row.src.menu -->
<g id="node14" class="node">
<title>four_in_a_row.src.menu</title>
<polygon fill="none" stroke="black" points="474,-324 290,-324 290,-288 474,-288 474,-324"/>
<text text-anchor="middle" x="382" y="-302.3" font-family="Times,serif" font-size="14.00">four_in_a_row.src.menu</text>
</g>
<!-- four_in_a_row.src.game&#45;&gt;four_in_a_row.src.menu -->
<g id="edge12" class="edge">
<title>four_in_a_row.src.game&#45;&gt;four_in_a_row.src.menu</title>
<path fill="none" stroke="black" d="M590.36,-96.92C549.44,-103.52 502.73,-116.96 468,-144 423.85,-178.37 399.69,-241.92 388.95,-278.05"/>
<polygon fill="black" stroke="black" points="386.15,-287.89 384.56,-277.04 387.52,-283.08 388.89,-278.27 388.89,-278.27 388.89,-278.27 387.52,-283.08 393.21,-279.5 386.15,-287.89 386.15,-287.89"/>
</g>
<!-- four_in_a_row.src.player -->
<g id="node15" class="node">
<title>four_in_a_row.src.player</title>
<polygon fill="none" stroke="black" points="1119.5,-252 930.5,-252 930.5,-216 1119.5,-216 1119.5,-252"/>
<text text-anchor="middle" x="1025" y="-230.3" font-family="Times,serif" font-size="14.00">four_in_a_row.src.player</text>
</g>
<!-- four_in_a_row.src.game&#45;&gt;four_in_a_row.src.player -->
<g id="edge13" class="edge">
<title>four_in_a_row.src.game&#45;&gt;four_in_a_row.src.player</title>
<path fill="none" stroke="black" d="M723.37,-108.13C786.42,-134.23 906.4,-183.9 974.49,-212.09"/>
<polygon fill="black" stroke="black" points="983.75,-215.92 972.79,-216.25 979.13,-214.01 974.51,-212.1 974.51,-212.1 974.51,-212.1 979.13,-214.01 976.23,-207.94 983.75,-215.92 983.75,-215.92"/>
</g>
<!-- four_in_a_row.src.game&#45;&gt;four_in_a_row.src.position -->
<g id="edge14" class="edge">
<title>four_in_a_row.src.game&#45;&gt;four_in_a_row.src.position</title>
<path fill="none" stroke="black" d="M590.41,-92.31C412.62,-97.35 38,-121.23 38,-233 38,-233 38,-233 38,-307 38,-376.52 111.7,-412.38 179.38,-430.65"/>
<polygon fill="black" stroke="black" points="189.32,-433.22 178.51,-435.07 184.48,-431.97 179.64,-430.72 179.64,-430.72 179.64,-430.72 184.48,-431.97 180.76,-426.36 189.32,-433.22 189.32,-433.22"/>
</g>
<!-- four_in_a_row.src.token -->
<g id="node21" class="node">
<title>four_in_a_row.src.token</title>
<polygon fill="none" stroke="black" points="1123,-324 939,-324 939,-288 1123,-288 1123,-324"/>
<text text-anchor="middle" x="1031" y="-302.3" font-family="Times,serif" font-size="14.00">four_in_a_row.src.token</text>
</g>
<!-- four_in_a_row.src.game&#45;&gt;four_in_a_row.src.token -->
<g id="edge15" class="edge">
<title>four_in_a_row.src.game&#45;&gt;four_in_a_row.src.token</title>
<path fill="none" stroke="black" d="M679.41,-108.27C674.27,-145.37 664.74,-231.02 683,-252 717.64,-291.8 860.27,-280.67 928.86,-288.1"/>
<polygon fill="black" stroke="black" points="938.82,-289.4 928.32,-292.56 933.86,-288.75 928.9,-288.1 928.9,-288.1 928.9,-288.1 933.86,-288.75 929.48,-283.64 938.82,-289.4 938.82,-289.4"/>
</g>
<!-- four_in_a_row.src.game_factory -->
<g id="node10" class="node">
<title>four_in_a_row.src.game_factory</title>
<polygon fill="none" stroke="black" points="862,-36 622,-36 622,0 862,0 862,-36"/>
<text text-anchor="middle" x="742" y="-14.3" font-family="Times,serif" font-size="14.00">four_in_a_row.src.game_factory</text>
</g>
<!-- four_in_a_row.src.game_factory&#45;&gt;four_in_a_row.src.color -->
<g id="edge16" class="edge">
<title>four_in_a_row.src.game_factory&#45;&gt;four_in_a_row.src.color</title>
<path fill="none" stroke="black" d="M856.89,-36.03C1081.92,-69.78 1559,-143.4 1559,-161 1559,-161 1559,-161 1559,-307 1559,-351.73 1547.59,-368.9 1512,-396 1489.57,-413.08 1426.52,-426.6 1370.53,-435.71"/>
<polygon fill="black" stroke="black" points="1360.53,-437.31 1369.7,-431.29 1365.47,-436.52 1370.41,-435.73 1370.41,-435.73 1370.41,-435.73 1365.47,-436.52 1371.12,-440.18 1360.53,-437.31 1360.53,-437.31"/>
</g>
<!-- four_in_a_row.src.game_factory&#45;&gt;four_in_a_row.src.conf -->
<g id="edge17" class="edge">
<title>four_in_a_row.src.game_factory&#45;&gt;four_in_a_row.src.conf</title>
<path fill="none" stroke="black" d="M862.13,-35.15C865.12,-35.45 868.08,-35.73 871,-36 1182.11,-64.43 1262.44,-38.02 1573,-72 1574.27,-72.14 1575.54,-72.28 1576.83,-72.43"/>
<polygon fill="black" stroke="black" points="1586.77,-73.67 1576.29,-76.9 1581.81,-73.05 1576.85,-72.43 1576.85,-72.43 1576.85,-72.43 1581.81,-73.05 1577.4,-67.97 1586.77,-73.67 1586.77,-73.67"/>
</g>
<!-- four_in_a_row.src.game_factory&#45;&gt;four_in_a_row.src.game -->
<g id="edge18" class="edge">
<title>four_in_a_row.src.game_factory&#45;&gt;four_in_a_row.src.game</title>
<path fill="none" stroke="black" d="M727.17,-36.3C719.98,-44.7 711.2,-54.93 703.31,-64.14"/>
<polygon fill="black" stroke="black" points="696.66,-71.9 699.75,-61.37 699.91,-68.1 703.17,-64.3 703.17,-64.3 703.17,-64.3 699.91,-68.1 706.59,-67.23 696.66,-71.9 696.66,-71.9"/>
</g>
<!-- four_in_a_row.src.game_factory&#45;&gt;four_in_a_row.src.grill -->
<g id="edge19" class="edge">
<title>four_in_a_row.src.game_factory&#45;&gt;four_in_a_row.src.grill</title>
<path fill="none" stroke="black" d="M621.87,-35.2C514.74,-49.77 373.88,-69.29 368,-72 335.62,-86.91 305.98,-115.64 287.3,-136.44"/>
<polygon fill="black" stroke="black" points="280.69,-143.97 283.9,-133.49 283.99,-140.21 287.28,-136.45 287.28,-136.45 287.28,-136.45 283.99,-140.21 290.67,-139.42 280.69,-143.97 280.69,-143.97"/>
</g>
<!-- four_in_a_row.src.game_factory&#45;&gt;four_in_a_row.src.grill_token -->
<g id="edge20" class="edge">
<title>four_in_a_row.src.game_factory&#45;&gt;four_in_a_row.src.grill_token</title>
<path fill="none" stroke="black" d="M759.11,-36.09C767.75,-45.79 777.54,-58.65 783,-72 801.08,-116.24 803.53,-172.63 803.14,-205.58"/>
<polygon fill="black" stroke="black" points="802.91,-215.81 798.63,-205.71 803.02,-210.81 803.13,-205.81 803.13,-205.81 803.13,-205.81 803.02,-210.81 807.63,-205.91 802.91,-215.81 802.91,-215.81"/>
</g>
<!-- four_in_a_row.src.game_factory&#45;&gt;four_in_a_row.src.menu -->
<g id="edge21" class="edge">
<title>four_in_a_row.src.game_factory&#45;&gt;four_in_a_row.src.menu</title>
<path fill="none" stroke="black" d="M647.76,-36.05C579.41,-52.88 488.97,-84.96 430,-144 393.95,-180.09 384.75,-242.02 382.55,-277.63"/>
<polygon fill="black" stroke="black" points="382.06,-287.78 378.04,-277.58 382.3,-282.79 382.54,-277.8 382.54,-277.8 382.54,-277.8 382.3,-282.79 387.03,-278.01 382.06,-287.78 382.06,-287.78"/>
</g>
<!-- four_in_a_row.src.player_factory -->
<g id="node16" class="node">
<title>four_in_a_row.src.player_factory</title>
<polygon fill="none" stroke="black" points="1264,-180 1018,-180 1018,-144 1264,-144 1264,-180"/>
<text text-anchor="middle" x="1141" y="-158.3" font-family="Times,serif" font-size="14.00">four_in_a_row.src.player_factory</text>
</g>
<!-- four_in_a_row.src.game_factory&#45;&gt;four_in_a_row.src.player_factory -->
<g id="edge22" class="edge">
<title>four_in_a_row.src.game_factory&#45;&gt;four_in_a_row.src.player_factory</title>
<path fill="none" stroke="black" d="M790.13,-36.13C863.77,-62.34 1004.17,-112.31 1083.22,-140.44"/>
<polygon fill="black" stroke="black" points="1093.01,-143.92 1082.08,-144.81 1088.3,-142.24 1083.59,-140.57 1083.59,-140.57 1083.59,-140.57 1088.3,-142.24 1085.1,-136.33 1093.01,-143.92 1093.01,-143.92"/>
</g>
<!-- four_in_a_row.src.game_factory&#45;&gt;four_in_a_row.src.position -->
<g id="edge23" class="edge">
<title>four_in_a_row.src.game_factory&#45;&gt;four_in_a_row.src.position</title>
<path fill="none" stroke="black" d="M621.84,-34.88C618.86,-35.26 615.91,-35.63 613,-36 475.06,-53.34 0,-21.97 0,-161 0,-161 0,-161 0,-307 0,-352.81 15,-368.99 52,-396 88.64,-422.74 136.3,-436.39 179.34,-443.21"/>
<polygon fill="black" stroke="black" points="189.31,-444.68 178.76,-447.67 184.36,-443.95 179.42,-443.22 179.42,-443.22 179.42,-443.22 184.36,-443.95 180.07,-438.77 189.31,-444.68 189.31,-444.68"/>
</g>
<!-- four_in_a_row.src.grill&#45;&gt;four_in_a_row.src.color -->
<g id="edge24" class="edge">
<title>four_in_a_row.src.grill&#45;&gt;four_in_a_row.src.color</title>
<path fill="none" stroke="black" d="M353.51,-171.18C388.96,-174.31 430.42,-177.68 468,-180 519.05,-183.16 1352.55,-179.13 1388,-216 1418.72,-247.94 1447.06,-273.38 1361,-396 1351.94,-408.91 1338.65,-419.16 1325.05,-427.07"/>
<polygon fill="black" stroke="black" points="1316.11,-431.94 1322.75,-423.21 1320.51,-429.55 1324.9,-427.16 1324.9,-427.16 1324.9,-427.16 1320.51,-429.55 1327.05,-431.11 1316.11,-431.94 1316.11,-431.94"/>
</g>
<!-- four_in_a_row.src.grill&#45;&gt;four_in_a_row.src.position -->
<g id="edge25" class="edge">
<title>four_in_a_row.src.grill&#45;&gt;four_in_a_row.src.position</title>
<path fill="none" stroke="black" d="M180.21,-168.63C148.16,-175.43 114.86,-189.1 95,-216 85.5,-228.87 93.41,-236.08 95,-252 101.48,-316.96 80.45,-347.36 124,-396 138.79,-412.52 158.71,-423.92 179.62,-431.78"/>
<polygon fill="black" stroke="black" points="189.28,-435.15 178.35,-436.11 184.56,-433.51 179.84,-431.86 179.84,-431.86 179.84,-431.86 184.56,-433.51 181.32,-427.61 189.28,-435.15 189.28,-435.15"/>
</g>
<!-- four_in_a_row.src.square_factory -->
<g id="node19" class="node">
<title>four_in_a_row.src.square_factory</title>
<polygon fill="none" stroke="black" points="354,-252 104,-252 104,-216 354,-216 354,-252"/>
<text text-anchor="middle" x="229" y="-230.3" font-family="Times,serif" font-size="14.00">four_in_a_row.src.square_factory</text>
</g>
<!-- four_in_a_row.src.grill&#45;&gt;four_in_a_row.src.square_factory -->
<g id="edge26" class="edge">
<title>four_in_a_row.src.grill&#45;&gt;four_in_a_row.src.square_factory</title>
<path fill="none" stroke="black" d="M257.61,-180.3C253.24,-188.36 247.94,-198.11 243.1,-207.02"/>
<polygon fill="black" stroke="black" points="238.29,-215.9 239.1,-204.96 240.67,-211.5 243.06,-207.11 243.06,-207.11 243.06,-207.11 240.67,-211.5 247.01,-209.25 238.29,-215.9 238.29,-215.9"/>
</g>
<!-- four_in_a_row.src.grill_token&#45;&gt;four_in_a_row.src.color -->
<g id="edge27" class="edge">
<title>four_in_a_row.src.grill_token&#45;&gt;four_in_a_row.src.color</title>
<path fill="none" stroke="black" d="M912.35,-251.49C999.87,-264.77 1110.89,-282.16 1132,-288 1215.04,-310.97 1263.69,-288.65 1312,-360 1325.63,-380.12 1311.28,-405.5 1295.93,-424.01"/>
<polygon fill="black" stroke="black" points="1289.14,-431.73 1292.36,-421.25 1292.44,-427.97 1295.74,-424.22 1295.74,-424.22 1295.74,-424.22 1292.44,-427.97 1299.12,-427.19 1289.14,-431.73 1289.14,-431.73"/>
</g>
<!-- four_in_a_row.src.grill_token&#45;&gt;four_in_a_row.src.position -->
<g id="edge28" class="edge">
<title>four_in_a_row.src.grill_token&#45;&gt;four_in_a_row.src.position</title>
<path fill="none" stroke="black" d="M748.59,-252.03C685.62,-271.6 577.57,-303.64 483,-324 431.35,-335.12 282.41,-319.91 248,-360 231.76,-378.91 247.68,-405.18 264.37,-424.27"/>
<polygon fill="black" stroke="black" points="271.23,-431.71 261.14,-427.41 267.84,-428.04 264.45,-424.36 264.45,-424.36 264.45,-424.36 267.84,-428.04 267.76,-421.31 271.23,-431.71 271.23,-431.71"/>
</g>
<!-- four_in_a_row.src.grill_token&#45;&gt;four_in_a_row.src.token -->
<g id="edge29" class="edge">
<title>four_in_a_row.src.grill_token&#45;&gt;four_in_a_row.src.token</title>
<path fill="none" stroke="black" d="M857.73,-252.03C890.14,-261.94 931.18,-274.49 965.18,-284.88"/>
<polygon fill="black" stroke="black" points="975.02,-287.89 964.14,-289.27 970.24,-286.43 965.46,-284.97 965.46,-284.97 965.46,-284.97 970.24,-286.43 966.78,-280.66 975.02,-287.89 975.02,-287.89"/>
</g>
<!-- four_in_a_row.src.letter -->
<g id="node13" class="node">
<title>four_in_a_row.src.letter</title>
<polygon fill="none" stroke="black" points="1303,-396 1119,-396 1119,-360 1303,-360 1303,-396"/>
<text text-anchor="middle" x="1211" y="-374.3" font-family="Times,serif" font-size="14.00">four_in_a_row.src.letter</text>
</g>
<!-- four_in_a_row.src.letter&#45;&gt;four_in_a_row.src.color -->
<g id="edge30" class="edge">
<title>four_in_a_row.src.letter&#45;&gt;four_in_a_row.src.color</title>
<path fill="none" stroke="black" d="M1225.83,-396.3C1233.02,-404.7 1241.8,-414.93 1249.69,-424.14"/>
<polygon fill="black" stroke="black" points="1256.34,-431.9 1246.41,-427.23 1253.09,-428.1 1249.83,-424.3 1249.83,-424.3 1249.83,-424.3 1253.09,-428.1 1253.25,-421.37 1256.34,-431.9 1256.34,-431.9"/>
</g>
<!-- four_in_a_row.src.letter&#45;&gt;four_in_a_row.src.position -->
<g id="edge31" class="edge">
<title>four_in_a_row.src.letter&#45;&gt;four_in_a_row.src.position</title>
<path fill="none" stroke="black" d="M1118.74,-390.99C1103.15,-392.82 1087.13,-394.56 1072,-396 833.31,-418.67 552.73,-435.24 401,-443.37"/>
<polygon fill="black" stroke="black" points="390.75,-443.92 400.5,-438.89 395.74,-443.65 400.73,-443.38 400.73,-443.38 400.73,-443.38 395.74,-443.65 400.97,-447.88 390.75,-443.92 390.75,-443.92"/>
</g>
<!-- four_in_a_row.src.menu&#45;&gt;four_in_a_row.src.button -->
<g id="edge32" class="edge">
<title>four_in_a_row.src.menu&#45;&gt;four_in_a_row.src.button</title>
<path fill="none" stroke="black" d="M374.58,-324.3C371.21,-332.19 367.13,-341.7 363.38,-350.45"/>
<polygon fill="black" stroke="black" points="359.33,-359.9 359.13,-348.93 361.3,-355.3 363.27,-350.7 363.27,-350.7 363.27,-350.7 361.3,-355.3 367.41,-352.48 359.33,-359.9 359.33,-359.9"/>
</g>
<!-- four_in_a_row.src.menu&#45;&gt;four_in_a_row.src.color -->
<g id="edge33" class="edge">
<title>four_in_a_row.src.menu&#45;&gt;four_in_a_row.src.color</title>
<path fill="none" stroke="black" d="M474.17,-322.22C533.16,-332.25 611.25,-346.06 680,-360 750.59,-374.31 767.05,-383.61 838,-396 951.68,-415.85 1083.44,-430.85 1171.48,-439.74"/>
<polygon fill="black" stroke="black" points="1181.46,-440.74 1171.06,-444.22 1176.48,-440.24 1171.51,-439.74 1171.51,-439.74 1171.51,-439.74 1176.48,-440.24 1171.96,-435.26 1181.46,-440.74 1181.46,-440.74"/>
</g>
<!-- four_in_a_row.src.menu&#45;&gt;four_in_a_row.src.position -->
<g id="edge34" class="edge">
<title>four_in_a_row.src.menu&#45;&gt;four_in_a_row.src.position</title>
<path fill="none" stroke="black" d="M289.7,-314.91C260.79,-322.26 231.81,-335.7 214,-360 204.54,-372.9 206.6,-381.81 214,-396 220.47,-408.39 231.3,-418.48 242.79,-426.4"/>
<polygon fill="black" stroke="black" points="251.22,-431.78 240.37,-430.19 247.01,-429.09 242.8,-426.4 242.8,-426.4 242.8,-426.4 247.01,-429.09 245.22,-422.61 251.22,-431.78 251.22,-431.78"/>
</g>
<!-- four_in_a_row.src.menu&#45;&gt;four_in_a_row.src.text_box -->
<g id="edge35" class="edge">
<title>four_in_a_row.src.menu&#45;&gt;four_in_a_row.src.text_box</title>
<path fill="none" stroke="black" d="M427.5,-324.12C453.38,-333.86 485.97,-346.13 513.24,-356.39"/>
<polygon fill="black" stroke="black" points="522.65,-359.93 511.7,-360.62 517.97,-358.17 513.29,-356.41 513.29,-356.41 513.29,-356.41 517.97,-358.17 514.87,-352.2 522.65,-359.93 522.65,-359.93"/>
</g>
<!-- four_in_a_row.src.player&#45;&gt;four_in_a_row.src.token -->
<g id="edge36" class="edge">
<title>four_in_a_row.src.player&#45;&gt;four_in_a_row.src.token</title>
<path fill="none" stroke="black" d="M1026.48,-252.3C1027.14,-260.02 1027.94,-269.29 1028.68,-277.89"/>
<polygon fill="black" stroke="black" points="1029.53,-287.9 1024.2,-278.32 1029.11,-282.91 1028.68,-277.93 1028.68,-277.93 1028.68,-277.93 1029.11,-282.91 1033.16,-277.55 1029.53,-287.9 1029.53,-287.9"/>
</g>
<!-- four_in_a_row.src.player_factory&#45;&gt;four_in_a_row.src.color -->
<g id="edge37" class="edge">
<title>four_in_a_row.src.player_factory&#45;&gt;four_in_a_row.src.color</title>
<path fill="none" stroke="black" d="M1264.22,-167.52C1342.6,-173.29 1433.9,-186.37 1459,-216 1510.71,-277.04 1507.29,-332.22 1459,-396 1447.42,-411.3 1409.34,-423.43 1370.46,-432.2"/>
<polygon fill="black" stroke="black" points="1360.57,-434.36 1369.38,-427.83 1365.45,-433.29 1370.34,-432.23 1370.34,-432.23 1370.34,-432.23 1365.45,-433.29 1371.3,-436.62 1360.57,-434.36 1360.57,-434.36"/>
</g>
<!-- four_in_a_row.src.player_factory&#45;&gt;four_in_a_row.src.player -->
<g id="edge38" class="edge">
<title>four_in_a_row.src.player_factory&#45;&gt;four_in_a_row.src.player</title>
<path fill="none" stroke="black" d="M1112.62,-180.12C1097.46,-189.28 1078.59,-200.66 1062.26,-210.52"/>
<polygon fill="black" stroke="black" points="1053.49,-215.81 1059.72,-206.79 1057.77,-213.23 1062.05,-210.64 1062.05,-210.64 1062.05,-210.64 1057.77,-213.23 1064.37,-214.5 1053.49,-215.81 1053.49,-215.81"/>
</g>
<!-- four_in_a_row.src.token_factory -->
<g id="node22" class="node">
<title>four_in_a_row.src.token_factory</title>
<polygon fill="none" stroke="black" points="1378.5,-252 1137.5,-252 1137.5,-216 1378.5,-216 1378.5,-252"/>
<text text-anchor="middle" x="1258" y="-230.3" font-family="Times,serif" font-size="14.00">four_in_a_row.src.token_factory</text>
</g>
<!-- four_in_a_row.src.player_factory&#45;&gt;four_in_a_row.src.token_factory -->
<g id="edge39" class="edge">
<title>four_in_a_row.src.player_factory&#45;&gt;four_in_a_row.src.token_factory</title>
<path fill="none" stroke="black" d="M1169.62,-180.12C1184.92,-189.28 1203.94,-200.66 1220.42,-210.52"/>
<polygon fill="black" stroke="black" points="1229.27,-215.81 1218.38,-214.54 1224.98,-213.24 1220.69,-210.68 1220.69,-210.68 1220.69,-210.68 1224.98,-213.24 1223,-206.81 1229.27,-215.81 1229.27,-215.81"/>
</g>
<!-- four_in_a_row.src.square -->
<g id="node18" class="node">
<title>four_in_a_row.src.square</title>
<polygon fill="none" stroke="black" points="920.5,-324 727.5,-324 727.5,-288 920.5,-288 920.5,-324"/>
<text text-anchor="middle" x="824" y="-302.3" font-family="Times,serif" font-size="14.00">four_in_a_row.src.square</text>
</g>
<!-- four_in_a_row.src.square&#45;&gt;four_in_a_row.src.circle -->
<g id="edge40" class="edge">
<title>four_in_a_row.src.square&#45;&gt;four_in_a_row.src.circle</title>
<path fill="none" stroke="black" d="M859.96,-324.12C879.88,-333.61 904.82,-345.49 926.02,-355.58"/>
<polygon fill="black" stroke="black" points="935.16,-359.93 924.19,-359.7 930.64,-357.78 926.13,-355.63 926.13,-355.63 926.13,-355.63 930.64,-357.78 928.06,-351.57 935.16,-359.93 935.16,-359.93"/>
</g>
<!-- four_in_a_row.src.square&#45;&gt;four_in_a_row.src.color -->
<g id="edge41" class="edge">
<title>four_in_a_row.src.square&#45;&gt;four_in_a_row.src.color</title>
<path fill="none" stroke="black" d="M827.99,-324.27C833.75,-344.95 846.48,-378.92 871,-396 918.08,-428.79 1068.66,-441.32 1171.03,-446.09"/>
<polygon fill="black" stroke="black" points="1181.09,-446.54 1170.9,-450.58 1176.1,-446.31 1171.1,-446.09 1171.1,-446.09 1171.1,-446.09 1176.1,-446.31 1171.3,-441.59 1181.09,-446.54 1181.09,-446.54"/>
</g>
<!-- four_in_a_row.src.square&#45;&gt;four_in_a_row.src.position -->
<g id="edge42" class="edge">
<title>four_in_a_row.src.square&#45;&gt;four_in_a_row.src.position</title>
<path fill="none" stroke="black" d="M808.63,-324.11C788.78,-344.96 752.13,-379.45 713,-396 658.44,-419.08 506.71,-434.02 400.66,-441.98"/>
<polygon fill="black" stroke="black" points="390.55,-442.72 400.19,-437.5 395.54,-442.36 400.52,-441.99 400.52,-441.99 400.52,-441.99 395.54,-442.36 400.85,-446.47 390.55,-442.72 390.55,-442.72"/>
</g>
<!-- four_in_a_row.src.square_factory&#45;&gt;four_in_a_row.src.position -->
<g id="edge43" class="edge">
<title>four_in_a_row.src.square_factory&#45;&gt;four_in_a_row.src.position</title>
<path fill="none" stroke="black" d="M206.34,-252.15C169.21,-282.35 102.86,-346.53 138,-396 148.51,-410.8 163.48,-421.5 179.97,-429.24"/>
<polygon fill="black" stroke="black" points="189.26,-433.23 178.3,-433.42 184.67,-431.26 180.07,-429.28 180.07,-429.28 180.07,-429.28 184.67,-431.26 181.85,-425.15 189.26,-433.23 189.26,-433.23"/>
</g>
<!-- four_in_a_row.src.square_factory&#45;&gt;four_in_a_row.src.square -->
<g id="edge44" class="edge">
<title>four_in_a_row.src.square_factory&#45;&gt;four_in_a_row.src.square</title>
<path fill="none" stroke="black" d="M354.09,-249.72C461.8,-262.39 615.54,-280.47 717.47,-292.47"/>
<polygon fill="black" stroke="black" points="727.47,-293.64 717.02,-296.94 722.51,-293.06 717.54,-292.48 717.54,-292.48 717.54,-292.48 722.51,-293.06 718.07,-288.01 727.47,-293.64 727.47,-293.64"/>
</g>
<!-- four_in_a_row.src.text_box&#45;&gt;four_in_a_row.src.color -->
<g id="edge45" class="edge">
<title>four_in_a_row.src.text_box&#45;&gt;four_in_a_row.src.color</title>
<path fill="none" stroke="black" d="M670.6,-389.22C804.77,-402.58 1038.33,-425.83 1171.13,-439.06"/>
<polygon fill="black" stroke="black" points="1181.31,-440.07 1170.91,-443.56 1176.33,-439.57 1171.36,-439.08 1171.36,-439.08 1171.36,-439.08 1176.33,-439.57 1171.8,-434.6 1181.31,-440.07 1181.31,-440.07"/>
</g>
<!-- four_in_a_row.src.text_box&#45;&gt;four_in_a_row.src.position -->
<g id="edge46" class="edge">
<title>four_in_a_row.src.text_box&#45;&gt;four_in_a_row.src.position</title>
<path fill="none" stroke="black" d="M500.35,-396.03C460.32,-406.11 409.47,-418.92 367.79,-429.41"/>
<polygon fill="black" stroke="black" points="357.95,-431.89 366.55,-425.08 362.8,-430.67 367.65,-429.45 367.65,-429.45 367.65,-429.45 362.8,-430.67 368.75,-433.81 357.95,-431.89 357.95,-431.89"/>
</g>
<!-- four_in_a_row.src.token&#45;&gt;four_in_a_row.src.circle -->
<g id="edge47" class="edge">
<title>four_in_a_row.src.token&#45;&gt;four_in_a_row.src.circle</title>
<path fill="none" stroke="black" d="M1016.17,-324.3C1008.98,-332.7 1000.2,-342.93 992.31,-352.14"/>
<polygon fill="black" stroke="black" points="985.66,-359.9 988.75,-349.37 988.91,-356.1 992.17,-352.3 992.17,-352.3 992.17,-352.3 988.91,-356.1 995.59,-355.23 985.66,-359.9 985.66,-359.9"/>
</g>
<!-- four_in_a_row.src.token&#45;&gt;four_in_a_row.src.color -->
<g id="edge48" class="edge">
<title>four_in_a_row.src.token&#45;&gt;four_in_a_row.src.color</title>
<path fill="none" stroke="black" d="M1044.56,-324.33C1062.8,-347.26 1094.72,-385.96 1110,-396 1131.71,-410.27 1157.59,-421 1182.19,-428.93"/>
<polygon fill="black" stroke="black" points="1191.9,-431.95 1181.02,-433.28 1187.13,-430.47 1182.35,-428.98 1182.35,-428.98 1182.35,-428.98 1187.13,-430.47 1183.69,-424.69 1191.9,-431.95 1191.9,-431.95"/>
</g>
<!-- four_in_a_row.src.token&#45;&gt;four_in_a_row.src.letter -->
<g id="edge49" class="edge">
<title>four_in_a_row.src.token&#45;&gt;four_in_a_row.src.letter</title>
<path fill="none" stroke="black" d="M1075.03,-324.12C1099.97,-333.82 1131.34,-346.02 1157.66,-356.26"/>
<polygon fill="black" stroke="black" points="1167.11,-359.93 1156.16,-360.5 1162.45,-358.12 1157.79,-356.31 1157.79,-356.31 1157.79,-356.31 1162.45,-358.12 1159.42,-352.11 1167.11,-359.93 1167.11,-359.93"/>
</g>
<!-- four_in_a_row.src.token&#45;&gt;four_in_a_row.src.position -->
<g id="edge50" class="edge">
<title>four_in_a_row.src.token&#45;&gt;four_in_a_row.src.position</title>
<path fill="none" stroke="black" d="M979.66,-324.1C905.92,-348.57 776.37,-391.18 754,-396 634.89,-421.67 495.74,-435.47 401.11,-442.48"/>
<polygon fill="black" stroke="black" points="390.94,-443.22 400.59,-438.01 395.93,-442.86 400.92,-442.5 400.92,-442.5 400.92,-442.5 395.93,-442.86 401.25,-446.99 390.94,-443.22 390.94,-443.22"/>
</g>
<!-- four_in_a_row.src.token_factory&#45;&gt;four_in_a_row.src.circle -->
<g id="edge51" class="edge">
<title>four_in_a_row.src.token_factory&#45;&gt;four_in_a_row.src.circle</title>
<path fill="none" stroke="black" d="M1237.82,-252.15C1213.89,-271.76 1172.19,-303.76 1132,-324 1105.32,-337.44 1074.47,-348.55 1046.97,-357.07"/>
<polygon fill="black" stroke="black" points="1037.39,-359.98 1045.65,-352.77 1042.18,-358.53 1046.96,-357.08 1046.96,-357.08 1046.96,-357.08 1042.18,-358.53 1048.27,-361.38 1037.39,-359.98 1037.39,-359.98"/>
</g>
<!-- four_in_a_row.src.token_factory&#45;&gt;four_in_a_row.src.color -->
<g id="edge52" class="edge">
<title>four_in_a_row.src.token_factory&#45;&gt;four_in_a_row.src.color</title>
<path fill="none" stroke="black" d="M1275.19,-252.14C1296.39,-274.61 1331.31,-316.36 1345,-360 1349.79,-375.27 1352.31,-381.77 1345,-396 1338.73,-408.21 1328.19,-418.23 1317.01,-426.15"/>
<polygon fill="black" stroke="black" points="1308.39,-431.8 1314.29,-422.55 1312.57,-429.06 1316.76,-426.32 1316.76,-426.32 1316.76,-426.32 1312.57,-429.06 1319.22,-430.08 1308.39,-431.8 1308.39,-431.8"/>
</g>
<!-- four_in_a_row.src.token_factory&#45;&gt;four_in_a_row.src.letter -->
<g id="edge53" class="edge">
<title>four_in_a_row.src.token_factory&#45;&gt;four_in_a_row.src.letter</title>
<path fill="none" stroke="black" d="M1266.25,-252.18C1273.9,-270.7 1282.64,-300.66 1272,-324 1266.77,-335.47 1257.7,-345.42 1248.13,-353.5"/>
<polygon fill="black" stroke="black" points="1240.04,-359.84 1245.13,-350.13 1243.97,-356.75 1247.91,-353.67 1247.91,-353.67 1247.91,-353.67 1243.97,-356.75 1250.69,-357.21 1240.04,-359.84 1240.04,-359.84"/>
</g>
<!-- four_in_a_row.src.token_factory&#45;&gt;four_in_a_row.src.position -->
<g id="edge54" class="edge">
<title>four_in_a_row.src.token_factory&#45;&gt;four_in_a_row.src.position</title>
<path fill="none" stroke="black" d="M1137.17,-251.09C1134.42,-251.4 1131.69,-251.7 1129,-252 1038.08,-261.98 791.48,-232.22 719,-288 678.56,-319.12 719.69,-363.92 680,-396 638.25,-429.74 500.87,-442.03 400.95,-446.49"/>
<polygon fill="black" stroke="black" points="390.79,-446.92 400.59,-442 395.79,-446.71 400.78,-446.49 400.78,-446.49 400.78,-446.49 395.79,-446.71 400.97,-450.99 390.79,-446.92 390.79,-446.92"/>
</g>
<!-- four_in_a_row.src.token_factory&#45;&gt;four_in_a_row.src.token -->
<g id="edge55" class="edge">
<title>four_in_a_row.src.token_factory&#45;&gt;four_in_a_row.src.token</title>
<path fill="none" stroke="black" d="M1202.76,-252.03C1170.63,-261.94 1129.95,-274.49 1096.25,-284.88"/>
<polygon fill="black" stroke="black" points="1086.49,-287.89 1094.72,-280.64 1091.27,-286.42 1096.04,-284.94 1096.04,-284.94 1096.04,-284.94 1091.27,-286.42 1097.37,-289.24 1086.49,-287.89 1086.49,-287.89"/>
</g>
</g>
</svg>
